poster: 
http://imgh.us/cellcount1.jpg

IMDB:  
http://www.imdb.com/title/tt1789724/

PLOT INFO:
Russell Carpenter reluctantly admits his wife Sadie into an experimental treatment facility for her life threatening disease. While locked in this prison like surrounding they, along with 6 others, are unknowingly subjected to a cure that might just be worse than the disease itself.


General
Complete name : /mnt/sdc1/rahulraj/files/Cell.Count.2012.HDRip.XviD.AC3-XTREME/Cell.Count.2012.HDRip.XviD.AC3-XTREME.avi
Format : AVI
Format/Info : Audio Video Interleave
File size : 1.37 GiB
Duration : 1h 36mn
Overall bit rate : 2 040 Kbps

Video
ID : 0
Format : MPEG-4 Visual
Format profile : Advanced Simple@L5
Format settings, BVOP : 1
Format settings, QPel : No
Format settings, GMC : No warppoints
Format settings, Matrix : Default (H.263)
Codec ID : XVID
Codec ID/Hint : XviD
Duration : 1h 36mn
Bit rate : 1 840 Kbps
Width : 720 pixels
Height : 320 pixels
Display aspect ratio : 2.25:1
Frame rate : 23.976 fps
Color space : YUV
Chroma subsampling : 4:2:0
Bit depth : 8 bits
Scan type : Progressive
Compression mode : Lossy
Bits/(Pixel*Frame) : 0.333
Stream size : 1.23 GiB (90%)
Writing library : XviD 1.2.1 (UTC 2008-12-04)

Audio
ID : 1
Format : AC-3
Format/Info : Audio Coding 3
Mode extension : CM (complete main)
Codec ID : 2000
Duration : 1h 36mn
Bit rate mode : Constant
Bit rate : 192 Kbps
Channel(s) : 2 channels
Channel positions : Front: L R
Sampling rate : 44.1 KHz
Bit depth : 16 bits
Compression mode : Lossy
Stream size : 132 MiB (9%)
Alignment : Aligned on interleaves
Interleave, duration : 70 ms (1.67 video frames)
Interleave, preload duration : 208 ms
Title : cellcount.track_1_

SCREENS: 
http://img254.imageshack.us/img254/4198/68821721.png 
http://img835.imageshack.us/img835/920/53005126.png 
http://img259.imageshack.us/img259/7921/43619891.png 
http://img209.imageshack.us/img209/2969/46920341.png 
http://img705.imageshack.us/img705/6291/30307180.png